# xmcd
#
# Track frame offsets: 
#        150
#        7481
#        17623
#        25578
#        36362
#        46885
#        55846
#        64902
#        74754
#        84917
#        95068
#        106580
#        116793
#        128318
#        138176
#        149593
#        161728
#        172377
#        181491
#        190163
#
# Disc length: 2720 seconds
#
# Revision: 2
# Processed by: cddbd v1.5.2PL0 Copyright (c) Steve Scherf et al.
# Submitted via: ExactAudioCopy v1.1
#
DISCID=1f0a9e14
DTITLE=Various Artist - Rhythm and Blues Goes Rock 'n' Roll - CD13
DYEAR=2002
DGENRE=Blues
TTITLE0=Johnny Duke and The Volcanos - Oh Oh Mojo (mono)
TTITLE1=Billy Gayles with Ike Turner's Kings Of Rhythm - Take Your Fin
TTITLE1=e Frame Home (mono)
TTITLE2=Hop Wilson and His Chickens - Chicken Stuff (mono)
TTITLE3=TV Slim and His Heartbreakers - My Baby's Gone (mono)
TTITLE4=Lorin Dean - Fi Fo Fumm (mono)
TTITLE5=Freddie Coaster - Be My Love (mono)
TTITLE6=Cledus Harrison - Rock and Roll In The Groove (mono)
TTITLE7=Guitar Frank - Wild Track (mono)
TTITLE8=TV Slim - Flat Foot Sam Met Jim Dandy (mono)
TTITLE9=Mr. Bo - I'm Leaving This Town (mono)
TTITLE10=Eugene Jefferson - A Pretty Girl Dressed In Brown (mono)
TTITLE11=Mabel Franklin - Let's Do The Wiggle (mono)
TTITLE12=Charles Sheffield with Big Sambo's Swingsters - Shoo Shoo Chi
TTITLE12=cken (mono)
TTITLE13=Jessie Mae - Don't Freeze On Me (mono)
TTITLE14=Joe Conwright and His Lucky 7 - She Just Won't Be True (mono)
TTITLE15=Bill Johnson and His Stir Cats - It's Too Late (mono)
TTITLE16=Tucker Coles Orchestra - House Rocker's Jamboree (mono)
TTITLE17=Jesse Allen - Rock This Morning (mono)
TTITLE18=Fletcher Smith - Brand New Neighborhood (mono)
TTITLE19=Jimmy Milner and His Blue Ribbon Band - Nobles Shuffle (mono)
EXTD=
EXTT0=
EXTT1=
EXTT2=
EXTT3=
EXTT4=
EXTT5=
EXTT6=
EXTT7=
EXTT8=
EXTT9=
EXTT10=
EXTT11=
EXTT12=
EXTT13=
EXTT14=
EXTT15=
EXTT16=
EXTT17=
EXTT18=
EXTT19=
PLAYORDER=
